<svg width="206" height="44" viewBox="0 0 206 44" fill="none" xmlns="http://www.w3.org/2000/svg">
<path d="M17.0547 32.9272H4.17085V24.5855H16.3684V21.1234H4.17085V13.2654H17.0547V9.67108H0V36.5384H17.0547V32.9272Z" fill="white"/>
<path d="M20.8684 36.5384H24.8902V24.4449C24.8902 21.9305 26.5776 20.0687 28.9682 20.0687C31.2378 20.0687 32.6722 21.503 32.6722 23.7558V36.5384H36.6096V24.3071C36.6096 21.8293 38.2661 20.0603 40.6483 20.0603C43.0304 20.0603 44.3916 21.5143 44.3916 24.0455V36.5384H48.4303V23.078C48.4303 19.1856 45.8991 16.6094 42.0264 16.6094C39.2336 16.6094 36.9246 18.0606 35.9206 20.4428H35.8278C35.0431 18.0044 33.0716 16.6094 30.3519 16.6094C27.7082 16.6094 25.6608 18.0606 24.7861 20.2374H24.6933V16.9525H20.8684V36.5384Z" fill="white"/>
<path d="M62.5234 16.6347C59.6913 16.6347 57.4385 18.069 56.2854 20.3218H56.2095V16.9469H52.3199V43.007H56.3417V33.3181H56.4345C57.5595 35.4949 59.7869 36.873 62.5966 36.873C67.5127 36.873 70.7695 32.9356 70.7695 26.7482C70.7695 20.5609 67.493 16.6347 62.5234 16.6347ZM61.4603 33.4672C58.3667 33.4672 56.322 30.8206 56.322 26.7454C56.322 22.6702 58.3892 20.0237 61.4603 20.0237C64.644 20.0237 66.6381 22.6477 66.6381 26.7454C66.6381 30.8431 64.644 33.4672 61.4603 33.4672Z" fill="white"/>
<path d="M73.88 36.5383H77.9018V24.8076C77.9018 22.0346 79.5021 20.3077 82.0896 20.3077C82.7005 20.2855 83.3111 20.3615 83.8979 20.5327V16.7837C83.4443 16.6905 82.9829 16.6406 82.5199 16.6347C80.2108 16.6347 78.4587 17.9931 77.809 20.2909H77.7162V16.9525H73.88V36.5383Z" fill="white"/>
<path d="M102.553 27.7495V26.3714C102.553 20.4343 99.1639 16.5981 93.7275 16.5981C88.1982 16.5981 84.6602 20.6931 84.6602 26.8382C84.6602 32.9834 88.142 36.9096 93.8934 36.9096C98.3933 36.9096 101.768 34.3587 102.331 30.7841H98.5115C97.9715 32.4969 96.2784 33.6528 93.9891 33.6528C90.766 33.6528 88.7185 31.4028 88.7185 27.9913V27.7495H102.553ZM93.7275 19.8381C96.5399 19.8381 98.4383 21.9418 98.5312 24.9398H88.7382C88.9435 21.9783 90.915 19.8381 93.7275 19.8381Z" fill="white"/>
<path d="M105.68 36.5383H109.702V25.1254C109.702 22.0908 111.527 20.0799 114.357 20.0799C117.186 20.0799 118.528 21.6999 118.528 24.6417V36.5383H122.566V23.8598C122.566 19.3599 120.091 16.6178 115.771 16.6178C112.756 16.6178 110.67 17.9931 109.609 20.229H109.517V16.9525H105.68V36.5383Z" fill="white"/>
<path d="M139.995 9.67108V20.2093H139.919C138.822 18.0494 136.586 16.6347 133.777 16.6347C128.86 16.6347 125.584 20.5721 125.584 26.7595C125.584 32.9469 128.86 36.8843 133.813 36.8843C136.662 36.8843 138.895 35.4499 140.051 33.2281H140.116V36.5384H144.025V9.67108H139.995ZM134.873 33.4672C131.69 33.4672 129.699 30.8769 129.699 26.7454C129.699 22.6139 131.69 20.0237 134.873 20.0237C137.967 20.0237 140.032 22.6871 140.032 26.7454C140.032 30.8038 137.964 33.4672 134.873 33.4672Z" fill="white"/>
<path d="M152.319 16.9525H148.297V36.5383H152.319V16.9525Z" fill="white"/>
<path d="M150.308 14.0838C150.763 14.0805 151.206 13.9426 151.582 13.6875C151.959 13.4325 152.251 13.0717 152.422 12.6507C152.594 12.2297 152.636 11.7674 152.545 11.3221C152.454 10.8768 152.233 10.4685 151.91 10.1486C151.587 9.82881 151.177 9.61181 150.731 9.52504C150.284 9.43827 149.823 9.4856 149.403 9.66108C148.984 9.83655 148.626 10.1323 148.375 10.511C148.123 10.8897 147.99 11.3343 147.991 11.7889C147.995 12.4001 148.242 12.9846 148.676 13.4147C149.11 13.8447 149.697 14.0853 150.308 14.0838Z" fill="white"/>
<path d="M157.607 36.5384H161.648V20.1362H165.557V16.9891H161.592V15.1469C161.592 13.4144 162.41 12.5398 164.162 12.5398C164.655 12.5342 165.147 12.5709 165.633 12.6495V9.67108C164.889 9.55074 164.137 9.48868 163.383 9.48546C159.398 9.48546 157.609 11.2742 157.609 15.071V16.9891H154.909V20.1362H157.609L157.607 36.5384Z" fill="white"/>
<path d="M172.892 9.67108H168.87V36.5384H172.892V9.67108Z" fill="white"/>
<path fill-rule="evenodd" clip-rule="evenodd" d="M189.334 18.2575L184.769 32.8822H184.713L179.746 16.9525H175.387L182.463 36.5552C182.463 36.5749 182.108 37.7308 182.108 37.7674C181.611 39.4014 180.865 40.2227 179.594 40.4758H160.084V43.8507H179.771V43.8113C183.301 43.6117 185.073 41.9833 186.634 37.5621L193.665 17.8384H193.684L197.684 6.08804L202.552 16.0778C202.748 16.481 203.096 16.7899 203.519 16.9365C203.943 17.0831 204.407 17.0555 204.81 16.8597C205.214 16.6639 205.523 16.316 205.669 15.8924C205.816 15.4689 205.788 15.0045 205.592 14.6013L198.941 0.946891C198.745 0.545943 198.398 0.238881 197.977 0.0928825C197.555 -0.0531156 197.093 -0.0261628 196.691 0.167844L183.034 6.81927C182.636 7.0177 182.332 7.36522 182.189 7.78627C182.046 8.20732 182.075 8.66787 182.269 9.06777C182.464 9.46766 182.808 9.77459 183.228 9.9218C183.648 10.069 184.108 10.0446 184.51 9.8539L194.503 4.98556L189.334 18.2575Z" fill="white"/>
</svg>
